<svg xmlns="http://www.w3.org/2000/svg" width="32" height="32" viewBox="0 0 32 32">
  <g fill="#3C3C3C" fill-rule="evenodd">
    <path fill-rule="nonzero" d="M3,3 L3,29 L29,29 L29,3 L3,3 Z M0,0 L32,0 L32,32 L0,32 L0,0 Z"/>
    <path fill-rule="nonzero" d="M16,26 C21.5228475,26 26,21.5228475 26,16 C26,10.4771525 21.5228475,6 16,6 C10.4771525,6 6,10.4771525 6,16 C6,21.5228475 10.4771525,26 16,26 Z M16,29 C8.82029825,29 3,23.1797017 3,16 C3,8.82029825 8.82029825,3 16,3 C23.1797017,3 29,8.82029825 29,16 C29,23.1797017 23.1797017,29 16,29 Z"/>
    <circle cx="16" cy="16" r="2.5"/>
  </g>
</svg>
