<?xml version="1.0" encoding="utf-8"?>
<!-- Generator: Adobe Illustrator 22.0.1, SVG Export Plug-In . SVG Version: 6.00 Build 0)  -->
<svg version="1.1" id="Calque_1" xmlns="http://www.w3.org/2000/svg" xmlns:xlink="http://www.w3.org/1999/xlink" x="0px" y="0px"
	 viewBox="0 0 2000 453.3" style="enable-background:new 0 0 2000 453.3;" xml:space="preserve">
<style type="text/css">
	.st0{fill:none;stroke:#FFFFFF;stroke-width:8.2466;stroke-linecap:round;stroke-miterlimit:10;}
</style>
<g>
	<path d="M494.8,281.3L379.7,34.5C365.8,4.6,330.2-8.3,300.3,5.6h0c-23,10.7-36,34.3-34.4,58.2v133.6L190,34.5
		C176,4.6,140.5-8.3,110.6,5.6h0c-23,10.7-36,34.3-34.4,58.2v183.8c-5-1.3-10.3-2.1-15.7-2.1C27.1,245.5,0,272.6,0,306
		c0,33.4,27.1,60.5,60.5,60.5c33.2,0,60.1-26.7,60.5-59.8h0V169.4l75.6,162.1c9.4,20.7,30.2,35,54.4,35c33,0,59.8-26.8,59.8-59.8
		V169.4l75.7,162.4c13.9,29.9,49.5,42.9,79.4,28.9l0,0C495.8,346.7,508.8,311.2,494.8,281.3z"/>
	<path d="M547.9,453.6c-13.1,0-26.2-5.4-35-14.4c-8.2-8.4-12.5-19.5-12.3-32.1c0.1-25,20.6-45.3,45.9-45.3c0,0,0.9,0,1.2,0
		c14.3,0,26.1-7.7,31.6-20.6l4.6-10.8l-63.1-152.9c-10.1-25.8,2.1-54.5,27.6-65.4c6.3-2.6,12.7-3.9,19.4-3.9
		c20.4,0,39.1,12.5,46.5,31.2l18.8,45.9l18.7-46.2l0.1-0.2c8.4-18.7,26.7-30.8,46.5-30.8c6.7,0,13.3,1.4,19.6,4.1
		c12.5,5.2,22.1,14.8,27.2,27.2c5.1,12.3,5.1,26-0.1,38.5l-70.7,173.6c-7,17.6-13.6,33.3-22.8,47.4
		C629.3,432.6,589.6,453.6,547.9,453.6z"/>
	<path d="M840.1,366.9c-27.1,0-49.1-22.7-49.1-50.5V50c0-27.8,22.7-50.5,50.5-50.5h74.9c101.3,0,183.7,82.4,183.7,183.7
		c0,101.3-82.4,183.7-183.7,183.7H840.1z M916.3,266c45.4,0,82.3-37.1,82.3-82.7c0-45.6-36.9-82.7-82.3-82.7h-24.4V266H916.3z"/>
	<path d="M1359.9,370.3c-24,0-57.6-7.4-73.3-28.1c-11.3-15.1-13.2-34.9-4.8-51.6c8.2-16.4,24.5-26.5,42.5-26.5c0.8,0,1.6,0,2.4,0.1
		c0,0,0.1,0,0.1,0c-15-8.5-28.5-20.8-38.3-40.3l-0.1-0.2c-12-25.1-8.9-55.7,7.8-78c17.5-23.7,46.7-37.9,78-37.9
		c12.6,0,24.7,2.3,36.2,6.7l0.1,0.1c15.5,6.2,27.6,18,32.4,31.6c4,11.4,2.8,23.3-3.5,34.3l-0.2,0.3c-6.2,10.3-15.4,16.9-26.5,19.3
		c6.9,4.2,13.3,9.3,18.7,15.3c24.1,25.2,30.8,66.1,16.4,99.4c-13.9,32-45.7,53.3-83,55.6C1363.4,370.2,1361.7,370.3,1359.9,370.3z"
		/>
	<path d="M1607.7,370.6c-72.4,0-131.3-58.9-131.3-131.3s58.9-131.3,131.3-131.3c29.5,0,57.2,9.4,80.1,27.2
		c10.8,8.4,17.7,20.5,19.4,34c1.6,13.1-2,26-10.1,36.3c-9.7,12.5-24.3,19.7-40.1,19.7c-11.1,0-21.7-3.6-30.6-10.4
		c-5.5-4.2-11.8-6.3-18.7-6.3c-16.7,0-30.8,14.1-30.8,30.8s14.1,30.8,30.8,30.8c6.9,0,13.2-2.1,18.8-6.4
		c8.8-6.8,19.4-10.4,30.5-10.4c15.8,0,30.5,7.2,40.2,19.8l0.2,0.2c16.6,22.3,12.3,53.8-9.6,70.1
		C1664.8,361.2,1637.2,370.6,1607.7,370.6z"/>
	<path d="M1868.7,107.9c-72.4,0-131.3,58.9-131.3,131.3s58.9,131.3,131.3,131.3c72.4,0,131.3-58.9,131.3-131.3
		S1941.1,107.9,1868.7,107.9z M1868.7,256.5c-9.5,0-17.2-7.7-17.2-17.2c0-9.5,7.7-17.2,17.2-17.2c9.5,0,17.2,7.7,17.2,17.2
		C1885.8,248.8,1878.2,256.5,1868.7,256.5z"/>
	<g>
		<circle cx="1186" cy="58" r="41.2"/>
		<path d="M1199,106.1h-27.3c-20.1,0-36.5,16.4-36.5,36.5v188.1c0,20.1,16.4,36.5,36.5,36.5h27.3c20.1,0,36.5-16.4,36.5-36.5V142.6
			C1235.5,122.6,1219.1,106.1,1199,106.1z"/>
	</g>
	<path class="st0" d="M1846.3,152.9c-35.9,9.4-62.4,40.4-66.2,77.3"/>
	<path class="st0" d="M1852.8,177.6c-25.3,6.7-44.1,28.3-47.2,54.2"/>
	<path class="st0" d="M1957.9,247.3c-3.4,37-29.5,68.2-65.2,78.1"/>
	<path class="st0" d="M1932.5,245c-2.4,26.1-20.6,48.1-45.6,55.5"/>
</g>
</svg>
